<svg xmlns="http://www.w3.org/2000/svg" xmlns:xlink="http://www.w3.org/1999/xlink" width="500" zoomAndPan="magnify" viewBox="0 0 375 374.999991" height="500" preserveAspectRatio="xMidYMid meet" version="1.0"><defs><g/><clipPath id="8767a60756"><path d="M 200.015625 138.898438 L 359.097656 138.898438 L 359.097656 229.433594 L 200.015625 229.433594 Z M 200.015625 138.898438 " clip-rule="nonzero"/></clipPath></defs><g clip-path="url(#8767a60756)"><path fill="#000000" d="M 200.015625 138.898438 L 359.097656 138.898438 L 359.097656 229.433594 L 200.015625 229.433594 Z M 200.015625 138.898438 " fill-opacity="1" fill-rule="nonzero"/></g><g fill="#000000" fill-opacity="1"><g transform="translate(19.272128, 211.149961)"><g><path d="M 32.15625 -56 C 40.320312 -56 46.773438 -53.957031 51.515625 -49.875 C 56.265625 -45.800781 58.640625 -39.976562 58.640625 -32.40625 L 41.765625 -32.40625 C 41.765625 -35.601562 40.921875 -38.132812 39.234375 -40 C 37.554688 -41.863281 35.171875 -42.796875 32.078125 -42.796875 C 28.503906 -42.796875 25.878906 -41.675781 24.203125 -39.4375 C 22.523438 -37.195312 21.6875 -34.078125 21.6875 -30.078125 L 21.6875 -24.953125 C 21.6875 -21.015625 22.523438 -17.910156 24.203125 -15.640625 C 25.878906 -13.367188 28.453125 -12.234375 31.921875 -12.234375 C 35.335938 -12.234375 37.921875 -13.113281 39.671875 -14.875 C 41.429688 -16.632812 42.3125 -19.113281 42.3125 -22.3125 L 58.640625 -22.3125 C 58.640625 -14.800781 56.332031 -9.046875 51.71875 -5.046875 C 47.101562 -1.046875 40.582031 0.953125 32.15625 0.953125 C 22.769531 0.953125 15.660156 -1.441406 10.828125 -6.234375 C 6.003906 -11.035156 3.59375 -18.128906 3.59375 -27.515625 C 3.59375 -36.898438 6.003906 -43.992188 10.828125 -48.796875 C 15.660156 -53.597656 22.769531 -56 32.15625 -56 Z M 32.15625 -56 "/></g></g></g><g fill="#000000" fill-opacity="1"><g transform="translate(87.586097, 211.149961)"><g><path d="M 25.6875 -43.203125 C 32.132812 -43.203125 37.382812 -42.117188 41.4375 -39.953125 C 45.488281 -37.796875 47.515625 -34.289062 47.515625 -29.4375 L 47.515625 -12.953125 C 47.515625 -12.046875 47.726562 -11.300781 48.15625 -10.71875 C 48.582031 -10.132812 49.222656 -9.84375 50.078125 -9.84375 L 52.953125 -9.84375 L 52.953125 -0.640625 C 52.796875 -0.535156 52.382812 -0.363281 51.71875 -0.125 C 51.050781 0.113281 50.101562 0.351562 48.875 0.59375 C 47.65625 0.832031 46.242188 0.953125 44.640625 0.953125 C 41.546875 0.953125 39 0.488281 37 -0.4375 C 35 -1.375 33.625 -2.664062 32.875 -4.3125 C 30.851562 -2.71875 28.585938 -1.441406 26.078125 -0.484375 C 23.566406 0.472656 20.632812 0.953125 17.28125 0.953125 C 7.363281 0.953125 2.40625 -2.988281 2.40625 -10.875 C 2.40625 -14.988281 3.507812 -18.125 5.71875 -20.28125 C 7.9375 -22.4375 11.125 -23.914062 15.28125 -24.71875 C 19.4375 -25.519531 24.875 -25.921875 31.59375 -25.921875 L 31.59375 -28 C 31.59375 -29.65625 31.019531 -30.910156 29.875 -31.765625 C 28.726562 -32.617188 27.25 -33.046875 25.4375 -33.046875 C 23.78125 -33.046875 22.351562 -32.75 21.15625 -32.15625 C 19.957031 -31.570312 19.359375 -30.640625 19.359375 -29.359375 L 19.359375 -29.046875 L 3.6875 -29.046875 C 3.625 -29.304688 3.59375 -29.675781 3.59375 -30.15625 C 3.59375 -34.15625 5.5 -37.328125 9.3125 -39.671875 C 13.132812 -42.023438 18.59375 -43.203125 25.6875 -43.203125 Z M 31.59375 -18.40625 C 27.0625 -18.40625 23.710938 -17.910156 21.546875 -16.921875 C 19.390625 -15.929688 18.3125 -14.609375 18.3125 -12.953125 C 18.3125 -10.285156 20.128906 -8.953125 23.765625 -8.953125 C 25.835938 -8.953125 27.660156 -9.507812 29.234375 -10.625 C 30.804688 -11.75 31.59375 -13.140625 31.59375 -14.796875 Z M 31.59375 -18.40625 "/></g></g></g><g fill="#000000" fill-opacity="1"><g transform="translate(147.020927, 211.149961)"><g><path d="M 20.796875 -38.3125 C 23.835938 -41.570312 27.785156 -43.203125 32.640625 -43.203125 C 38.347656 -43.203125 42.75 -41.347656 45.84375 -37.640625 C 48.9375 -33.929688 50.484375 -28.453125 50.484375 -21.203125 C 50.484375 -13.890625 48.9375 -8.367188 45.84375 -4.640625 C 42.75 -0.910156 38.347656 0.953125 32.640625 0.953125 C 26.773438 0.953125 22.296875 -1.363281 19.203125 -6 L 17.84375 0 L 4.875 0 L 4.875 -58 L 20.796875 -58 Z M 27.6875 -31.4375 C 25.332031 -31.4375 23.566406 -30.597656 22.390625 -28.921875 C 21.222656 -27.242188 20.640625 -25.070312 20.640625 -22.40625 L 20.640625 -19.765625 C 20.640625 -17.097656 21.222656 -14.9375 22.390625 -13.28125 C 23.566406 -11.625 25.332031 -10.796875 27.6875 -10.796875 C 32.269531 -10.796875 34.5625 -13.515625 34.5625 -18.953125 L 34.5625 -23.203125 C 34.5625 -28.691406 32.269531 -31.4375 27.6875 -31.4375 Z M 27.6875 -31.4375 "/></g></g></g><g fill="#faf6f5" fill-opacity="1"><g transform="translate(202.32503, 215.999986)"><g><path d="M 34.273438 1.261719 C 54.515625 1.261719 67.199219 -13.441406 65.351562 -34.105469 L 31.332031 -34.105469 L 31.332031 -22.175781 L 47.542969 -22.175781 C 45.863281 -17.21875 41.160156 -13.859375 34.441406 -13.859375 C 25.03125 -13.859375 19.570312 -20.496094 19.570312 -29.398438 C 19.570312 -38.640625 25.535156 -44.941406 34.273438 -44.941406 C 39.480469 -44.941406 43.933594 -42.671875 46.199219 -38.976562 L 64.261719 -38.976562 C 60.816406 -51.828125 48.886719 -60.058594 34.019531 -60.058594 C 15.539062 -60.058594 2.855469 -47.460938 2.855469 -29.398438 C 2.855469 -11.257812 15.625 1.261719 34.273438 1.261719 Z M 34.273438 1.261719 "/></g></g></g><g fill="#faf6f5" fill-opacity="1"><g transform="translate(270.533014, 215.999986)"><g><path d="M 34.859375 1.261719 C 53.59375 1.261719 66.863281 -11.425781 66.863281 -29.398438 C 66.863281 -47.375 53.59375 -60.058594 34.859375 -60.058594 C 16.128906 -60.058594 2.855469 -47.375 2.855469 -29.398438 C 2.855469 -11.425781 16.128906 1.261719 34.859375 1.261719 Z M 20.074219 -29.398438 C 20.074219 -38.21875 26.207031 -44.351562 34.859375 -44.351562 C 43.597656 -44.351562 49.644531 -38.21875 49.644531 -29.398438 C 49.644531 -20.578125 43.597656 -14.449219 34.859375 -14.449219 C 26.207031 -14.449219 20.074219 -20.578125 20.074219 -29.398438 Z M 20.074219 -29.398438 "/></g></g></g></svg>