<?xml version="1.0" encoding="utf-8"?>
<svg version="1.1" xmlns="http://www.w3.org/2000/svg" xmlns:xlink="http://www.w3.org/1999/xlink" x="0px" y="0px"
	 viewBox="0 0 600 600" style="enable-background:new 0 0 600 600;" xml:space="preserve">
<g id="background">
	<rect style="fill:#FFFFFF;" width="600" height="600"/>
</g>
<g id="objects">
	<g>
		<ellipse style="fill:#DBDBDB;" cx="300" cy="513.993" rx="94" ry="18"/>
		<g>
			<path style="fill:#E21E2C;" d="M451.468,224.107c-2.216,127.548-96.026,221.803-134.877,255.438
				c-9.537,8.257-23.672,8.222-33.208-0.036c-39.342-34.07-134.875-130.168-134.875-260.002c0-83.59,67.701-151.371,151.261-151.5
				C384.989,67.876,452.949,138.9,451.468,224.107z"/>
			<circle style="fill:#FFFFFF;" cx="300.008" cy="218.507" r="108.5"/>
			<path style="fill:#EFEFEF;" d="M383.728,149.497c-18.75-15.45-42.78-24.74-68.97-24.74c-59.92,0-108.5,48.58-108.5,108.5
				c0,26.19,9.29,50.22,24.74,68.97c-24.12-19.9-39.49-50.02-39.49-83.72c0-59.92,48.58-108.5,108.5-108.5
				C333.708,110.007,363.828,125.377,383.728,149.497z"/>
			<path style="fill:#BC1D30;" d="M451.468,224.107c-2.22,127.55-96.03,221.8-134.88,255.44c-9.53,8.25-23.67,8.22-33.2-0.04
				c-18.36-15.9-48.95-45.3-76.36-85.32c25.46,10.62,70.38,24.03,113.98,10.82c64.25-19.47,162.62-168.78,78.3-299.38
				C431.978,134.437,452.288,177.117,451.468,224.107z"/>
			<path style="fill:#FF5C70;" d="M274.889,80.391c-19.687,3.093-74.251,17.066-96.94,78.178c-2.54,6.842,6.698,11.727,10.861,5.733
				c17.337-24.962,46.279-55.239,88.148-63.581c2.832-0.564,4.865-3.064,4.913-5.95l0.137-8.16
				C282.071,82.781,278.673,79.797,274.889,80.391z"/>
		</g>
	</g>
</g>
</svg>
